HIERARCHY
ROOT Hips
{
  OFFSET 1.44925e-005 102.336 -0.101585
  CHANNELS 6 Xposition Yposition Zposition Zrotation Xrotation Yrotation
  JOINT LeftUpLeg
  {
    OFFSET 8.9458 -8.66707 0.101652
    CHANNELS 3 Zrotation Xrotation Yrotation
    JOINT LeftLeg
    {
      OFFSET 0 -44.4227 1.3727
      CHANNELS 3 Zrotation Xrotation Yrotation
      JOINT LeftFoot
      {
        OFFSET -0.253549 -42.0924 -1.46059
        CHANNELS 3 Zrotation Xrotation Yrotation
        JOINT LeftToes
        {
          OFFSET -0.04 -4.41509 8.4991
          CHANNELS 3 Zrotation Xrotation Yrotation
          End Site
          {
            OFFSET 0.08 -0.047448 9.77979
          }
        }
      }
    }
  }
  JOINT Spine
  {
    OFFSET 0 11.8905 0
    CHANNELS 3 Zrotation Xrotation Yrotation
    JOINT Spine1
    {
      OFFSET 0 25.6574 0.127663
      CHANNELS 3 Zrotation Xrotation Yrotation
      JOINT RightShoulder
      {
        OFFSET -8.99 -0.362252 -0.22
        CHANNELS 3 Zrotation Xrotation Yrotation
        JOINT RightArm
        {
          OFFSET -10.2827 -0.00338 0.322123
          CHANNELS 3 Zrotation Xrotation Yrotation
          JOINT RightForeArm
          {
            OFFSET -26.364 0.099144 -1.42434
            CHANNELS 3 Zrotation Xrotation Yrotation
            JOINT RightHand
            {
              OFFSET -22.0324 0.085362 1.02216
              CHANNELS 3 Zrotation Xrotation Yrotation
              End Site
              {
                OFFSET -13.3284 -0.6 1.50291
              }
            }
          }
        }
      }
      JOINT LeftShoulder1
      {
        OFFSET 8.99 -0.362252 -0.22
        CHANNELS 3 Zrotation Xrotation Yrotation
        JOINT LeftArm
        {
          OFFSET 10.2827 -0.00337999 0.322123
          CHANNELS 3 Zrotation Xrotation Yrotation
          JOINT LeftForeArm
          {
            OFFSET 26.2597 0.099144 -1.42434
            CHANNELS 3 Zrotation Xrotation Yrotation
            JOINT LeftHand
            {
              OFFSET 22.0902 0.085362 1.02216
              CHANNELS 3 Zrotation Xrotation Yrotation
              End Site
              {
                OFFSET 13.419 -0.6 1.50291
              }
            }
          }
        }
      }
      JOINT Head
      {
        OFFSET 0 8.73416 0.011341
        CHANNELS 3 Zrotation Xrotation Yrotation
        End Site
        {
          OFFSET -0.29 12.7742 2.51395
        }
      }
    }
  }
  JOINT RightUpLeg
  {
    OFFSET -8.9458 -8.66707 0.101652
    CHANNELS 3 Zrotation Xrotation Yrotation
    JOINT RightLeg
    {
      OFFSET 0 -44.4227 1.3727
      CHANNELS 3 Zrotation Xrotation Yrotation
      JOINT RightFoot
      {
        OFFSET 0.253549 -42.0924 -1.46059
        CHANNELS 3 Zrotation Xrotation Yrotation
        JOINT RightToes
        {
          OFFSET 0.04 -4.41509 8.4991
          CHANNELS 3 Zrotation Xrotation Yrotation
          End Site
          {
            OFFSET -0.08 -0.137448 9.77979
          }
        }
      }
    }
  }
}
MOTION
Frames:	12
Frame Time:	0.0333333
186.484 103.188 10.405 -2.09183 -0.00763692 -92.2547 -0.33255 1.5024 2.41533 0.0588604 7.56785 20.6929 -2.63937 -10.8324 -0.0346167 -1.33454e-009 8.75221e-006 -1.46516e-008 1.65413 5.457 -0.0249747 -1.95698 -4.06871 0.344756 37.1038 1.72237 0.00774773 40.5249 -8.49082 1.08468 6.13437 28.4402 14.0632 -9.11845 9.48756 0.276368 -42.9453 3.45721 -3.48421 -30.1052 -7.10222 4.5676 -3.61737 32.1142 -16.7299 5.82328 9.61819 -0.917488 -2.64906 -6.60888 -3.72784 -1.38187 0.332391 -3.80256 -0.359006 8.84588 -8.32389 4.01724 -11.4573 -0.0669803 0.0462048 0.000530889 0.662642 
186.484 103.188 10.3593 -2.04329 -0.0391462 -92.2415 -0.327648 1.43356 2.39532 0.0614898 7.59792 20.6945 -2.69005 -10.8434 -0.0346179 -1.33454e-009 8.75221e-006 -1.46516e-008 1.54758 5.40539 -0.0122114 -1.7458 -3.97276 0.326835 36.8415 1.72237 0.0141259 40.7633 -8.31885 1.22639 6.38644 28.0678 13.8744 -9.65699 9.44399 0.509708 -43.1319 3.47677 -3.49502 -30.0211 -6.88487 4.46282 -3.44457 32.019 -16.9518 5.82328 9.61819 -0.917488 -3.38491 -7.30234 -4.1667 -1.40408 0.238248 -3.84113 -0.32549 8.93897 -8.30583 3.96734 -11.505 -0.0669916 0.0462048 0.000530889 0.662642 
186.479 103.188 10.2715 -1.98579 -0.0796958 -92.2513 -0.304397 1.36192 2.40134 0.0447623 7.61851 20.6969 -2.75808 -10.8427 -0.0346179 -1.33454e-009 8.75221e-006 -1.46516e-008 1.31905 5.32429 0.0149576 -1.33491 -3.77176 0.292217 36.4561 1.72249 0.0285444 41.0567 -8.42102 1.47334 6.61557 28.1171 13.5708 -10.2044 9.42917 0.343035 -43.4793 3.51346 -3.51535 -29.8473 -6.5481 4.291 -3.26003 31.6925 -17.2454 5.82328 9.61819 -0.917488 -3.93113 -7.82769 -4.49412 -1.41916 0.118988 -3.88409 -0.276917 9.06123 -8.26229 3.89955 -11.5784 -0.0670092 0.0462048 0.000530889 0.662642 
186.463 103.188 10.1722 -1.99569 -0.0904006 -92.336 -0.239031 1.42375 2.47141 0.0111382 7.5536 20.7087 -2.8045 -10.8096 -0.034614 -1.33454e-009 8.75221e-006 -1.46516e-008 1.07668 5.17312 0.0552528 -0.93791 -3.40048 0.270998 36.2402 1.7232 0.0476377 41.158 -9.12806 1.76492 6.65104 29.1799 13.1838 -10.0665 9.46648 -0.0475488 -43.8175 3.55111 -3.53856 -29.6486 -6.15186 4.13811 -3.17561 31.1094 -17.4945 5.82328 9.61819 -0.917488 -3.96164 -7.76136 -4.48766 -1.38005 0.122746 -3.87335 -0.260789 9.08102 -8.19522 3.84011 -11.609 -0.0670165 0.0462048 0.000530889 0.662642 
186.433 103.189 10.0805 -2.0316 -0.0858379 -92.4595 -0.16718 1.55563 2.56067 -0.0233122 7.43633 20.7424 -2.83751 -10.7676 -0.0346092 -1.33454e-009 8.75221e-006 -1.46516e-008 1.07453 5.20723 0.0740509 -0.94779 -3.32947 0.29097 36.3401 1.72416 0.0560323 41.0255 -9.87675 1.82021 6.62417 30.3683 12.8493 -9.55192 9.49755 -0.142625 -43.8334 3.55335 -3.54053 -29.6323 -5.59276 4.17687 -3.08099 30.44 -17.788 5.82328 9.61819 -0.917488 -3.88348 -7.57051 -4.3377 -1.32131 0.187478 -3.8396 -0.262377 9.04434 -8.11411 3.77493 -11.613 -0.0670175 0.0462048 0.000530889 0.662642 
186.406 103.19 9.998 -1.99885 -0.102254 -92.5205 -0.116953 1.56544 2.61119 -0.0551064 7.3992 20.7476 -2.88646 -10.7625 -0.0346086 -1.33454e-009 8.75221e-006 -1.46516e-008 1.39204 5.64093 0.0371067 -1.46396 -3.9367 0.334937 36.6392 1.72527 0.0403643 40.7907 -10.089 1.45248 6.63686 30.6831 12.7399 -9.40125 9.49601 -0.0288827 -43.4218 3.50619 -3.50959 -29.8806 -5.08105 4.4146 -2.95768 30.0446 -18.0466 5.82328 9.61819 -0.917488 -3.3777 -7.08845 -3.96041 -1.30022 0.149511 -3.8407 -0.23809 9.07725 -8.06493 3.70788 -11.6583 -0.0671156 0.0462048 0.000530889 0.662642 
186.398 103.191 9.91427 -1.887 -0.125318 -92.497 -0.0589353 1.39991 2.63703 -0.0892231 7.50168 20.6857 -2.96254 -10.7996 -0.0346129 -1.33454e-009 8.75221e-006 -1.46516e-008 1.72981 6.10131 -0.0185136 -2.00623 -4.62935 0.362331 36.8836 1.72643 0.0123975 40.6093 -10.1289 0.993745 6.67957 30.5623 12.719 -9.67451 9.48393 -0.0361533 -42.93 3.44996 -3.47195 -30.1343 -5.05549 4.53583 -2.94399 30.1884 -18.0257 5.82328 9.61819 -0.917488 -2.15465 -5.96352 -3.34294 -1.28123 -0.000196872 -3.83592 -0.206492 9.15913 -8.10414 3.66748 -11.7262 -0.0676629 0.0462048 0.000530889 0.662642 
186.399 103.193 9.82437 -1.7718 -0.112293 -92.4905 0.0414102 1.20601 2.68677 -0.118551 7.64488 20.6161 -3.03897 -10.8351 -0.0350793 -1.33454e-009 8.75221e-006 -1.46516e-008 1.75714 6.05211 -0.0132096 -2.06447 -4.56012 0.37793 36.9806 1.72752 -0.0045756 40.4577 -10.7137 0.933462 6.8004 31.061 12.3997 -9.87792 9.48175 -0.131375 -42.7566 3.42991 -3.45791 -30.1149 -5.56807 4.30947 -3.06939 30.7619 -17.7205 5.82328 9.61819 -0.917488 -1.22554 -5.09299 -2.92101 -1.18641 -0.128317 -3.73848 -0.2272 9.16648 -8.21299 3.65175 -11.7309 -0.0684409 0.0462048 0.000530889 0.662642 
186.397 103.194 9.7378 -1.71027 -0.069168 -92.5677 0.153706 1.12011 2.75812 -0.13142 7.71191 20.6151 -3.08409 -10.8416 -0.0366427 -1.33454e-009 8.75221e-006 -1.46516e-008 1.52197 5.64504 0.0469195 -1.71136 -3.93445 0.385984 37.0054 1.72845 -0.00179358 40.264 -11.7509 1.23386 7.10152 32.0958 11.6842 -9.90383 9.4866 -0.209567 -42.9013 3.44637 -3.46905 -29.8784 -6.13511 3.97932 -3.18181 31.3044 -17.4388 5.82328 9.61819 -0.917488 -1.57578 -5.49494 -2.92072 -1.04207 -0.168328 -3.58086 -0.290555 9.09566 -8.29686 3.62345 -11.6827 -0.0693913 0.0462048 0.000530889 0.662642 
186.387 103.196 9.66748 -1.69517 -0.0431561 -92.6489 0.221069 1.12486 2.80383 -0.125388 7.70732 20.648 -3.10564 -10.8358 -0.0374795 -1.33454e-009 8.75221e-006 -1.46516e-008 1.28891 5.46414 0.0684603 -1.34242 -3.59491 0.347854 36.9489 1.7291 0.012866 40.1197 -12.5354 1.45207 7.47417 32.7926 10.9734 -10.0361 9.49455 -0.386582 -43.1457 3.47715 -3.49368 -29.6095 -6.37076 3.92183 -3.2186 31.4243 -17.3602 5.82328 9.61819 -0.917488 -2.41594 -6.28919 -3.01279 -0.947256 -0.163303 -3.48188 -0.327166 9.05049 -8.31903 3.58457 -11.6789 -0.0704782 0.0462048 0.000530889 0.662642 
186.371 103.197 9.61622 -1.69156 -0.047406 -92.6365 0.236514 1.13757 2.79695 -0.0983717 7.69299 20.6389 -3.13551 -10.8288 -0.0379273 -1.33454e-009 8.75221e-006 -1.46516e-008 1.15302 5.60747 0.0150443 -1.09645 -3.70047 0.251883 36.7227 1.72937 0.0312703 40.1594 -12.7847 1.4052 7.6707 32.972 10.6488 -10.2639 9.50175 -0.601528 -43.4212 3.51347 -3.52425 -29.3245 -6.42358 4.11516 -3.30101 31.2176 -17.3208 5.82328 9.61819 -0.917488 -2.27998 -5.84244 -2.8204 -0.914664 -0.150799 -3.45464 -0.331743 9.04743 -8.35627 3.58459 -11.7208 -0.0716421 0.0462048 0.000530889 0.662642 
186.348 103.199 9.58118 -1.67649 -0.0563787 -92.5724 0.224973 1.13782 2.74656 -0.045537 7.67042 20.6216 -3.17518 -10.8037 -0.0380744 -1.33454e-009 8.75221e-006 -1.46516e-008 1.07154 5.72046 -0.0478736 -0.919506 -3.80972 0.159474 36.4032 1.72916 0.0505717 40.3244 -12.7829 1.26021 7.67263 33.091 10.6183 -10.3164 9.49487 -0.541882 -43.7262 3.54898 -3.54828 -28.9931 -6.52634 4.28494 -3.46865 31.0548 -17.1748 5.82328 9.61819 -0.917488 -1.42096 -4.51289 -2.57566 -0.8832 -0.130391 -3.41887 -0.358331 9.0179 -8.4471 3.62229 -11.7192 -0.0728 0.0462048 0.000530889 0.662642 
